<?xml version="1.0" encoding="utf-8"?>
<!-- Generator: Adobe Illustrator 21.0.2, SVG Export Plug-In . SVG Version: 6.00 Build 0)  -->
<svg version="1.1" id="Layer_1" xmlns="http://www.w3.org/2000/svg" xmlns:xlink="http://www.w3.org/1999/xlink" x="0px" y="0px"
	 viewBox="0 0 387.6 94" style="enable-background:new 0 0 387.6 94;" xml:space="preserve">
<style type="text/css">
	.st0{fill:#FFFFFF;}
	.st1{fill:#FFA400;}
</style>
<g>
	<g>
		<g>
			<path class="st0" d="M2.4,82.9V71.4l4.2-0.4V28.7l-4.2-0.4V16.8h25.1v11.5l-4.2,0.4v42.2l4.2,0.4v11.5H2.4z"/>
			<path class="st0" d="M53.4,84.3c-8.2,0-17.6-1.4-20.9-2.3v-15h11.7l0.9,4.8c2.5,0.1,4.9,0.2,7.4,0.2c7.1,0,9-1.6,9-5
				c0-3.3-1.4-4.2-8.8-7.2l-4.3-1.7c-11-4.2-16.9-8.9-16.9-18.6c0-13,9.2-16.7,24.1-16.7c8.6,0,18,1.2,21.7,2.4v14.1H65.7l-1-4.2
				c-2.4-0.1-5.4-0.2-7.3-0.2c-5.9,0-8.4,0.7-8.4,4.1c0,3,1.4,4,7.7,6.3l5.1,1.9c12.8,4.9,17.3,9.4,17.3,18.9
				C79.2,78.3,71,84.3,53.4,84.3z"/>
			<path class="st0" d="M222,38.1l-13.6,44.8h-25.2l-13.6-44.8l-4.9-0.7V24.3h19.7l8.1,31.6c1.3,5.4,2.5,11.1,3.4,15.9h0.2
				c1-4.8,2.2-10.4,3.5-15.9l8-31.6h19.5v13.1L222,38.1z"/>
			<path class="st0" d="M245.7,58.5v0.8c0,7.5,1,11.5,13.6,11.5c5.9,0,16.2-0.4,21.9-1v12c-4.6,1.1-12.8,2.6-22.7,2.6
				c-21.5,0-30.5-7.7-30.5-27.8v-5.3c0-19.5,10.3-28.4,28.2-28.4C278,22.8,284,37,284,52.4v6H245.7z M266.6,47.8
				c0-6.5-1.3-12.1-10.4-12.1c-8.9,0-10.3,5.7-10.3,12.1v0.8h20.8V47.8z"/>
			<path class="st0" d="M309.9,40.7v28.7l4.6,0.5v13h-27.1v-13l4.7-0.5V37.8l-4.7-0.5v-13h21.3v4.9c5.7-5.3,12.9-6.3,19.3-6.3v15.3
				C321.5,38.1,314.5,39.2,309.9,40.7z"/>
			<path class="st0" d="M364,82.9v-3.8c-3.9,2.6-10.7,5.2-18.4,5.2c-11,0-17.1-5.5-17.1-16.7v-2.4c0-15.6,11.9-17.3,28.5-17.3h5.4
				v-3.2c0-7.1-1.5-8.5-10.8-8.5c-2.2,0-4.1,0.1-6.3,0.2l-1,4.5h-11.5V26.3c3.3-1.1,12.7-3.5,22.5-3.5c18.2,0,25,5.8,25,21.9v24.6
				l4.6,0.5v13H364z M363.1,57.1h-5.9c-8.2,0-11.7,0.9-11.7,7.5V67c0,4.5,2.8,5.7,6.7,5.7c4.6,0,9.1-1.6,11-2.7V57.1z"/>
		</g>
	</g>
	<g>
		<path class="st1" d="M148.1,21c-5-4-9.6-6-10.9-6.5c-5-2.2-9.8-2.4-14.5-4.8c-3.6-1.9-12.3-9.4-11.2-8.5c-0.4,1.1-3.7,11.7-2.2,21
			c1.5,9.3,5.7,15.5,14.3,19.8c8.6,4.3,17.1,4.1,18.2,10.3c0.3,1.7,0.5,3.2,0.5,4.6c1.2,0.7,1.8,1.1,2.2,1.4
			c0.6,0.5-0.1,2.9-1.1,5.3c-1,2.4-2.2,4.6-3,4.4c-0.4-0.1-1.2-0.3-2.5-0.9c-0.1,0.1-0.2,0.2-0.3,0.3c-1.1,1.2-2.4,2.2-3.9,3
			c0.4,1.4,0.5,2.2,0.6,2.7c0.1,0.8-2,1.7-4.5,2.5l0,0c0,0,0,0-0.1,0c0,0,0,0-0.1,0l0,0c-2.5,0.8-4.8,1.2-5.1,0.5
			c-0.3-0.5-0.6-1.3-1.2-2.9c-1.6,0-3.3-0.1-4.9-0.5c-0.8,1.4-1.2,2.1-1.6,2.5c-0.5,0.6-2.7-0.3-5.1-1.6c-2.3-1.3-4.3-2.7-4.1-3.5
			c0.1-0.5,0.4-1.3,1.1-2.9c-1.2-1.2-2.3-2.4-3.3-3.8c-1.5,0.4-2.3,0.6-2.8,0.6c-0.8,0.1-1.7-2.2-2.6-4.8l0,0c0,0,0,0,0,0
			c0,0,0,0,0,0l0,0c-0.8-2.6-1.3-5-0.7-5.4c0.4-0.2,1.1-0.5,2.5-1.1c-0.1-1.9,0-3.6,0.3-5.3c-1.4-0.9-2-1.5-2.4-1.8
			c-0.6-0.5,0.4-2.8,1.6-5.1c1.3-2.3,2.7-4.3,3.4-4c0.4,0.1,1,0.4,2.2,1c0.1-0.1,0.1-0.1,0.2-0.2c2.2-2.6,2.2-2.2,3.5-3.3
			c0,0-3.4-4.7-4-9.6c-0.6-4.8-0.4-9.8-0.4-9.8s-0.5,0.5-2.3,1.8c-1.9,1.4-3.4,2.3-6.2,4.7c-3,2.3-18.3,15-14.7,37.6
			c1.1,7.2,4.1,13.5,8.3,18.7c9,10.9,23.6,16.5,38,14.3c21.1-3.3,37-21.6,33.3-44.8C160.8,34,154.2,25.9,148.1,21z"/>
	</g>
</g>
</svg>
