<svg xmlns="http://www.w3.org/2000/svg" width="754" height="215" viewBox="0 0 754 215">
  <g fill="none" fill-rule="evenodd">
    <text fill="#FFFFFF" font-family="SourceSansPro-Regular, Source Sans Pro" font-size="36">
      <tspan x="557" y="35">Maintenance</tspan>
    </text>
    <path stroke="#F8E81C" stroke-width="4.5" d="M446.75 23.5L522.703933 23.5M522.703933 23.5L511.903933 20.5 511.903933 26.5 522.703933 23.5z" stroke-linecap="square"/>
    <text fill="#FFFFFF" font-family="SourceSansPro-Regular, Source Sans Pro" font-size="36">
      <tspan x="334" y="35">Build</tspan>
    </text>
    <path stroke="#F8E81C" stroke-width="4.5" d="M223.75 23.5L299.703933 23.5M299.703933 23.5L288.903933 20.5 288.903933 26.5 299.703933 23.5z" stroke-linecap="square"/>
    <text fill="#FFFFFF" font-family="SourceSansPro-Regular, Source Sans Pro" font-size="36">
      <tspan x="6" y="35">Protototype</tspan>
    </text>
    <g transform="translate(0 9)">
      <path stroke="#4990E2" stroke-width="4.5" d="M101,172 C140.212217,172 172,140.212217 172,101 C172,89.0832748 169.064167,77.85225 163.876325,67.9907484 C153.92733,49.0788351 135.695956,35.2037163 114.005242,31.1884314 C109.789057,30.4079507 105.44217,30 101,30 C73.6235545,30 49.8659932,45.4942856 38.0182598,68.1919133 C32.8960803,78.0048724 30,89.1642283 30,101" transform="scale(1 -1) rotate(-47 -131.284 0)"/>
      <polygon fill="#4990E2" points="49.5 39 64 68 35 68" transform="rotate(35 49.5 53.5)"/>
    </g>
    <g transform="translate(272 13)">
      <path stroke="#4990E2" stroke-width="4.5" d="M100.917125,172.001687 C140.225405,172.001687 172.091062,140.13603 172.091062,100.82775 C172.091062,88.8818312 169.148037,77.6232924 163.947486,67.7376319 C153.974118,48.7793879 135.69808,34.8702775 113.954228,30.8451559 C109.727714,30.0627632 105.370177,29.653813 100.917125,29.653813 C73.4736121,29.653813 49.6578491,45.1860568 37.7810908,67.9392896 C32.6463629,77.7762887 29.7431878,88.962983 29.7431878,100.82775" transform="scale(1 -1) rotate(-47 -130.97 0)"/>
      <polygon fill="#4990E2" points="48.996 39.345 63.662 68.677 34.33 68.677" transform="rotate(35 48.996 54.011)"/>
    </g>
    <g transform="translate(551 13)">
      <path stroke="#4990E2" stroke-width="4.5" d="M100.917125,172.001687 C140.225405,172.001687 172.091062,140.13603 172.091062,100.82775 C172.091062,88.8818312 169.148037,77.6232924 163.947486,67.7376319 C153.974118,48.7793879 135.69808,34.8702775 113.954228,30.8451559 C109.727714,30.0627632 105.370177,29.653813 100.917125,29.653813 C73.4736121,29.653813 49.6578491,45.1860568 37.7810908,67.9392896 C32.6463629,77.7762887 29.7431878,88.962983 29.7431878,100.82775" transform="scale(1 -1) rotate(-47 -130.97 0)"/>
      <polygon fill="#4990E2" points="48.996 39.345 63.662 68.677 34.33 68.677" transform="rotate(35 48.996 54.011)"/>
    </g>
  </g>
</svg>
