<?xml version="1.0" encoding="UTF-8" standalone="no"?>
<svg
   xmlns:dc="http://purl.org/dc/elements/1.1/"
   xmlns:cc="http://creativecommons.org/ns#"
   xmlns:rdf="http://www.w3.org/1999/02/22-rdf-syntax-ns#"
   xmlns:svg="http://www.w3.org/2000/svg"
   xmlns="http://www.w3.org/2000/svg"
   viewBox="0 0 523 124.9125"
   height="124.9125"
   width="523"
   xml:space="preserve"
   version="1.1"
   id="svg2"><metadata
     id="metadata8"><rdf:RDF><cc:Work
         rdf:about=""><dc:format>image/svg+xml</dc:format><dc:type
           rdf:resource="http://purl.org/dc/dcmitype/StillImage" /></cc:Work></rdf:RDF></metadata><defs
     id="defs6" /><g
     transform="matrix(1.25,0,0,-1.25,0,124.9125)"
     id="g10"><g
       transform="scale(0.1,0.1)"
       id="g12"><path
         id="path14"
         style="fill:#ffffff;fill-opacity:1;fill-rule:nonzero;stroke:none"
         d="m 112.691,762.328 c -16.5152,0 -32.5543,2.77 -47.6363,8.25 C 17.6758,787.777 -1.69922,841.711 0.117188,887.543 2.60156,950.246 38.2969,989.512 100.629,998.137 c 50.683,6.993 100.109,-17.813 123.976,-61.711 21.125,-38.891 18.497,-85.649 -7.07,-125.047 -19.019,-29.332 -61.156,-49.051 -104.844,-49.051" /><path
         id="path16"
         style="fill:#ffffff;fill-opacity:1;fill-rule:nonzero;stroke:none"
         d="m 549.363,37.2266 c -13.058,0 -26.531,0.4882 -40.086,1.4648 C 461.184,42.1406 401.965,48.9258 370.59,70.9688 328.453,100.508 328.777,188.633 335.613,236.047 l 1.938,13.484 12.937,-4.238 c 9.801,-3.223 20.532,-7.207 32.117,-11.523 47.059,-17.528 106.633,-39.637 175.278,-36.278 22.383,1.121 40.16,7.949 55.941,15.496 8.504,14.715 11.02,26.574 7.715,36.145 -7.148,20.683 -41.769,33.562 -78.43,47.187 l -15.945,5.977 c -83.578,31.933 -166.281,71.316 -179.473,169.316 -9.144,67.93 5.313,125.91 41.84,167.664 46.949,53.676 130.856,79.766 230.266,71.875 49.765,-3.972 115.043,-15.175 143.469,-45.953 32.086,-34.769 32.519,-93.285 30.211,-150.226 l -0.551,-13.762 c 0,0 -41.633,17.187 -64.488,26.328 -35.887,14.356 -75.45,29.406 -119.301,29.406 -12.242,0 -24.317,-1.449 -35.856,-4.269 -12.523,-3.106 -23.336,-14.688 -24.629,-26.414 -2.414,-22.18 21.813,-41.965 74.063,-60.489 l 9.234,-3.261 C 719.371,431.641 809.785,399.738 823.598,287.18 831.98,219.074 816.898,162.695 778.793,119.602 731.816,66.4844 650.32,37.2266 549.363,37.2266" /><path
         id="path18"
         style="fill:#ffffff;fill-opacity:1;fill-rule:nonzero;stroke:none"
         d="m 117.156,58.4766 c -38.3005,0 -71.2341,6.5937 -90.3708,18.0859 l -5.3008,3.1953 -0.2188,6.1797 C 16.8984,200.918 17.5547,322.793 18.1953,440.637 c 0.3906,72.41 0.7891,147.269 0.0274,219.711 l -0.0586,5.433 4.1836,3.481 c 17.3515,14.445 53.2617,23.054 96.0583,23.054 43.02,0 79.199,-8.609 96.789,-23.007 l 4.243,-3.469 -0.059,-5.492 c -0.762,-72.239 -0.356,-146.93 0.047,-219.125 0.636,-118.059 1.293,-240.11 -3.098,-355.2855 l -0.238,-6.4063 -5.586,-3.1445 C 190.523,65.1562 155.621,58.4766 117.156,58.4766" /><path
         id="path20"
         style="fill:#ffffff;fill-opacity:1;fill-rule:nonzero;stroke:none"
         d="m 2587.13,459.699 c 30.02,-2.023 64.31,-3.086 99.84,-3.086 0.01,0 0.01,0 0.01,0 35.8,0 70.52,1.09 101.07,3.133 4.21,27.07 -0.39,49.121 -13.73,65.617 -15.25,18.856 -42.16,29.668 -73.81,29.668 -38.27,0 -76.17,-15.91 -96.54,-40.539 -13.12,-15.859 -18.77,-34.25 -16.84,-54.793 z M 2710.08,36.6016 c -110.28,0 -203.62,38.332 -262.83,107.9294 -62.96,74.004 -85.73,177.813 -65.84,300.215 24.16,148.754 129.91,250.832 275.98,266.379 111.99,11.922 206.21,-24.766 260.57,-101.035 54.86,-76.953 64.48,-184.406 26.39,-294.797 l -2.48,-7.176 -7.6,-0.508 c -37.78,-2.414 -82.12,-3.547 -139.55,-3.547 -28.51,0 -57.23,0.274 -85.47,0.516 -43.09,0.414 -85,0.785 -123.26,0.199 8.38,-86.41 110.92,-99.679 173.04,-99.679 70.76,0 140.81,16.027 182.78,31.015 l 14.66,5.246 0.61,-15.558 c 2.7,-67.547 -21.98,-107.735 -47.47,-143.0979 l -1.99,-2.7695 -3.18,-1.2227 c -56.01,-21.6211 -93.14,-35.1054 -148.12,-40.0078 -15.63,-1.3867 -31.18,-2.1015 -46.24,-2.1015" /><path
         id="path22"
         style="fill:#ffffff;fill-opacity:1;fill-rule:nonzero;stroke:none"
         d="m 3173.69,58.6133 c -35.02,0 -68.86,5.2929 -90.48,14.1406 l -6.81,2.8047 -0.27,7.3516 c -4.38,115.5468 -3.71,237.9808 -3.08,356.3868 0.4,72.844 0.8,148.176 0.03,221.051 l -0.08,6.656 5.76,3.348 c 36.57,21.293 99.08,30.062 142.07,28.753 l 7.24,-0.207 2.91,-6.628 c 7.1,-16.184 8.91,-36.555 10.67,-56.27 0.86,-9.68 1.73,-19.535 3.24,-28.559 1.93,4.215 3.76,8.516 5.62,12.926 7.48,17.692 15.2,35.973 31.63,51.461 26.7,25.117 67.78,39.516 112.73,39.516 21.73,0 43.48,-3.258 64.65,-9.723 l 3.77,-1.148 2.27,-3.227 c 32.55,-46.488 34.51,-132.93 19.82,-190.672 l -3.37,-13.246 -12.43,5.649 c -22.29,10.097 -45.36,15.222 -68.55,15.222 -61.46,0 -114.63,-37.383 -129.84,-91.054 -0.73,-41.985 -0.32,-85.848 0.06,-128.301 0.63,-70.145 1.3,-142.696 -3.1,-209.219 l -0.39,-5.8672 -4.97,-3.0976 c -25.22,-15.6914 -66.65,-18.0469 -89.1,-18.0469" /><path
         id="path24"
         style="fill:#ffffff;fill-opacity:1;fill-rule:nonzero;stroke:none"
         d="m 3828.33,318.594 c -37.27,0 -68.56,-10.594 -81.7,-27.696 -9.14,-11.914 -13.05,-29.46 -10.18,-45.8 2.39,-13.711 9.27,-24.805 19.36,-31.27 12.28,-7.851 28.85,-12 47.92,-12 38.41,0 79.87,17.246 94.63,38.895 l 0,62.765 c -17.49,9.52 -43.11,15.106 -70.03,15.106 z M 3749.99,36.4258 c -11.91,0 -24.66,0.7734 -37.91,2.3047 -94.04,10.9179 -162.03,76.5035 -173.2,167.0895 -8.8,71.172 7.1,132.043 45.98,176.016 43.91,49.687 116.16,77.043 203.4,77.043 32.95,0 67.14,-3.867 101.79,-11.524 9.33,36.29 -9.31,67.168 -33.59,78.946 -17.24,8.34 -38.82,12.586 -64.12,12.586 -68.49,0 -147.34,-30.078 -189.68,-46.219 l -10.15,-3.879 -4.39,9.922 c -23.39,52.871 -4.6,133.625 19.17,168.234 l 1.96,2.856 3.23,1.277 c 69.23,27.508 145.59,42.649 215.02,42.649 151.13,0 246.95,-69.536 262.86,-190.778 4.26,-32.402 3.84,-68.972 3.39,-107.683 -0.15,-11.856 -0.28,-23.828 -0.28,-35.793 0,-10.039 -0.49,-22.012 -1.03,-34.942 -1.92,-46.121 -5.14,-123.347 22.19,-129.16 1.74,-0.351 3.44,-0.527 5.22,-0.527 l 0,0 c 5.84,0 11.66,1.965 18.39,4.23 9.88,3.328 24.08,7.93 34.84,6.219 5.95,-0.957 10.95,-3.809 10.95,-3.809 0,0 -0.08,-24.629 -0.23,-32.402 -0.91,-45.535 -2.04,-88.418 -33.22,-119.8437 -20.37,-20.5469 -55.67,-32.3242 -96.81,-32.3242 -60.92,0 -122.55,25.7148 -137.09,75.1369 -43.38,-38.9651 -84.52,-75.6252 -166.69,-75.6252" /><path
         id="path26"
         style="fill:#ffffff;fill-opacity:1;fill-rule:nonzero;stroke:none"
         d="m 2033.12,43.3789 c -34.01,0 -70.04,2.4414 -110.18,7.4609 l -6.96,0.879 -2.39,6.6093 C 1852.54,228.359 1789.12,418.605 1713.99,657.027 l -2.52,8.071 6.96,4.789 c 28.32,19.48 73.75,23.59 106.87,23.59 24.68,0 50.93,-2.383 73.94,-6.668 l 6.52,-1.223 2.18,-6.254 c 41.12,-117.906 107.92,-340.309 134.16,-428.492 31.39,107.89 120.09,412.855 123.73,427.48 l 1.33,5.356 5.02,2.297 c 15.44,7.054 35.97,10.629 61.05,10.629 44.87,0 101.36,-12.579 120.89,-26.918 l 6.29,-4.606 -1.98,-7.535 c -31.82,-120.656 -74.4,-251.449 -115.55,-377.934 -23.4,-71.843 -47.58,-146.132 -68.89,-215.9957 l -2.04,-6.668 -6.86,-1.25 c -46.33,-8.3984 -88.25,-12.3164 -131.97,-12.3164" /><path
         id="path28"
         style="fill:#f69512;fill-opacity:1;fill-rule:nonzero;stroke:none"
         d="m 1454.84,305.27 c -4.51,-15.582 -11.43,-30.153 -20.34,-43.278 -8.99,-13.281 -20.04,-25.078 -32.66,-34.961 -12.58,-9.765 -26.68,-17.617 -41.93,-23.164 -13.58,-4.922 -28.05,-7.988 -43.11,-8.867 -0.88,-0.039 -1.76,-0.098 -2.63,-0.137 -0.43,-0.019 -0.86,-0.039 -1.31,-0.078 -0.12,0 -0.24,0.02 -0.32,0.02 -0.17,0 -0.27,-0.02 -0.43,-0.039 -1.58,-0.039 -3.22,-0.039 -4.78,-0.039 -0.65,0.019 -1.23,0 -1.84,0.019 -0.95,0 -1.85,0.039 -2.77,0.059 -5.33,0.195 -10.59,0.605 -15.7,1.308 -1.29,0.196 -2.54,0.332 -3.85,0.567 -0.06,0 -0.14,0.019 -0.2,0.019 -5.8,0.996 -11.6,2.344 -17.67,4.121 -16.23,4.707 -29.38,10.879 -43.38,20.371 -14,9.532 -24.53,19.454 -34.92,32.832 -10.37,13.36 -17.39,26.075 -23.11,42.012 -2.91,8.063 -5.02,15.699 -6.5,23.473 -0.45,1.289 -0.98,2.5 -1.41,3.847 -5.04,15.395 -7.28,29.125 -7.3,45.336 -0.04,16.211 2.11,29.942 7.09,45.371 4.96,15.43 11.25,27.813 20.72,40.958 9.51,13.144 19.32,22.988 32.4,32.558 2.64,1.953 5.28,3.809 7.87,5.586 8.56,5.391 17.62,9.941 27.19,13.477 1.86,0.683 3.75,1.445 5.63,2.324 8.53,4.062 17.3,10.41 24.16,18.847 6.42,7.872 8.35,20.137 9.39,30.469 4.16,-4.941 8.11,-9.531 11.89,-13.73 10.81,-12.031 20.34,-21.016 30.45,-26.758 4.75,-2.695 9.87,-4.844 15.59,-7.344 9.59,-4.101 20.9,-9.14 35.04,-18.984 1.76,-1.192 3.49,-2.383 5.21,-3.633 8.81,-6.406 16.55,-14.043 23.71,-22.207 8.52,-7.051 16.53,-14.668 23.36,-23.418 0.16,-0.176 0.3,-0.371 0.47,-0.566 1.99,-2.442 3.83,-4.942 5.49,-7.52 7.24,-10.605 13.12,-22.148 17.53,-34.414 5.27,-14.707 8.4,-30.508 8.91,-46.973 0,-0.117 0.02,-0.254 0.02,-0.351 0.46,-16.371 -1.63,-32.192 -5.96,-47.113 z m 83.77,-59.723 c -1.49,1.601 -3.05,3.34 -4.57,5 17.87,36.348 28.18,77.105 28.18,120.351 0,0.118 0,0.274 0,0.411 l 97.01,0 c 0,41.562 -4.78,79.257 -16.32,81.621 -11.55,2.324 -32.86,3.632 -88.68,6.386 -2.28,0.098 -4.68,0.235 -7.03,0.332 -13.71,39.961 -36.21,75.821 -65.51,105.02 l 4.77,4.766 64.12,64.121 c -29.37,29.375 -59.41,52.652 -69.24,46.172 -9.8,-6.524 -25.8,-20.645 -67.21,-58.165 -1.82,-1.679 -3.75,-3.437 -5.57,-5.097 -36.23,17.715 -76.8,27.93 -119.82,27.93 -8.87,0 -17.62,-0.508 -26.27,-1.329 8.53,0.86 17.12,1.387 25.89,1.387 l 0,97.758 c -41.56,0 -79.27,-4.793 -81.62,-16.336 -2.36,-11.543 -3.63,-32.832 -6.4,-88.668 -0.12,-2.5 -0.26,-5.215 -0.37,-7.773 0.29,0.097 0.56,0.156 0.86,0.254 -56.04,-19.024 -103.91,-55.586 -136.98,-103.321 9.14,13.379 19.49,26.192 31.37,38.086 l -5,5 -64.12,64.121 c -29.397,-29.375 -52.647,-59.433 -46.155,-69.258 6.485,-9.824 20.635,-25.781 58.165,-67.246 1.7,-1.836 3.52,-3.847 5.23,-5.742 0.32,0.625 0.69,1.231 1,1.856 -18.44,-36.778 -29.08,-78.164 -29.1,-122.09 0,0.058 -0.02,0.136 -0.02,0.215 l -97.755,0 c -0.016,-41.547 4.797,-79.239 16.336,-81.602 11.519,-2.344 32.816,-3.652 88.669,-6.426 2.43,-0.097 5.01,-0.234 7.48,-0.351 13.57,-39.922 35.89,-75.782 65.02,-105 l -4.77,-4.785 -64.11,-64.102 c 29.36,-29.375 59.44,-52.6368 69.27,-46.1524 9.8,6.5039 25.8,20.625 67.22,58.1644 1.68,1.562 3.52,3.183 5.28,4.785 36.36,-18.008 77.18,-28.3791 120.5,-28.4377 l 0,-96.972612 c 41.55,0 79.26,4.804692 81.61,16.347612 2.36,11.5235 3.63,32.8321 6.4,88.6717 0.1,2.129 0.22,4.434 0.31,6.66 40.12,13.633 76.15,36.114 105.46,65.411 l 4.34,-4.336 64.14,-64.122 c 29.38,29.395 52.66,59.415 46.15,69.258 -6.5,9.805 -20.64,25.782 -58.16,67.227" /><path
         id="path30"
         style="fill:#f7970f;fill-opacity:1;fill-rule:nonzero;stroke:none"
         d="m 1377.8,112.754 c 5.41,1.836 10.84,3.633 16.15,5.781 l -14.36,34.61 c -0.56,-14.024 -1.21,-27.5 -1.79,-40.391" /><path
         id="path32"
         style="fill:#f7970f;fill-opacity:1;fill-rule:nonzero;stroke:none"
         d="m 1199.17,153.066 c -10.28,-9.414 -20.24,-18.496 -29.81,-27.148 5.14,-2.539 10.22,-5.156 15.52,-7.344 l 14.29,34.492 0,0" /><path
         id="path34"
         style="fill:#f9ad11;fill-opacity:1;fill-rule:nonzero;stroke:none"
         d="m 1482.57,563.984 c 21.92,-21.914 39.01,-46.777 51.88,-73.105 1.74,1.855 3.55,3.906 5.21,5.723 37.54,41.464 51.68,57.421 58.19,67.265 6.5,9.785 -16.76,39.863 -46.16,69.219 l -64.16,-64.082 -4.96,-5.02 z m -386.26,-386.25 c -21.91,21.914 -39,46.778 -51.87,73.106 -1.7,-1.856 -3.56,-3.945 -5.22,-5.742 -37.54,-41.485 -51.685,-57.403 -58.181,-67.246 -6.508,-9.805 16.789,-39.825 46.151,-69.219 l 64.08,64.082 5.04,5.019 z m 466.28,193.145 c 0,-31.016 -5.52,-60.649 -15.06,-88.418 2.58,0.156 5.3,0.273 7.8,0.371 55.84,2.773 77.11,4.063 88.67,6.445 11.54,2.344 16.35,40.016 16.31,81.602 l -97.72,0 z m -546.3,0 c 0,30.996 5.53,60.605 15.06,88.379 -2.58,-0.117 -5.3,-0.274 -7.79,-0.391 -55.845,-2.793 -77.111,-4.043 -88.677,-6.387 -11.508,-2.343 -16.27,-40.019 -16.309,-81.601 l 97.716,0 z m 466.32,-193.145 c -21.93,-21.894 -46.8,-38.984 -73.15,-51.855 1.87,-1.738 3.92,-3.555 5.74,-5.274 41.46,-37.5191 57.41,-51.6597 67.26,-58.1441 9.84,-6.5039 39.88,16.7774 69.23,46.1721 l -64.12,64.121 -4.96,4.98 z m -386.26,386.289 c 21.9,21.895 46.76,38.965 73.09,51.856 -1.9,1.699 -3.93,3.555 -5.75,5.234 -41.46,37.52 -57.43,51.66 -67.22,58.184 -9.84,6.508 -39.84,-16.797 -69.28,-46.172 l 64.12,-64.121 5.04,-4.981 z M 1289.44,97.7734 c -30.98,0 -60.61,5.4886 -88.38,15.0196 0.12,-2.578 0.23,-5.313 0.38,-7.793 2.76,-55.8594 4.01,-77.1484 6.41,-88.6523 C 1210.18,4.76562 1247.91,0 1289.44,0 l 0,97.7734 z m 0,553.3006 0,90.668 c 41.54,0 79.26,-4.765 81.6,-16.336 2.38,-11.535 3.67,-32.804 6.41,-88.648 0.15,-2.481 0.25,-5.215 0.37,-7.793 -27.78,9.531 -57.37,15.058 -88.38,15.058 l 0,7.051" /><path
         id="path36"
         style="fill:#f69412;fill-opacity:1;fill-rule:nonzero;stroke:none"
         d="m 1377.8,112.754 c 5.41,1.836 10.84,3.633 16.11,5.781 l -14.32,34.61 c -0.56,-14.024 -1.21,-27.5 -1.79,-40.391" /><path
         id="path38"
         style="fill:#f69412;fill-opacity:1;fill-rule:nonzero;stroke:none"
         d="m 1199.15,153.066 c -10.26,-9.414 -20.22,-18.496 -29.79,-27.187 5.14,-2.5 10.22,-5.117 15.52,-7.305 l 14.27,34.492 0,0" /><path
         id="path40"
         style="fill:#f7970f;fill-opacity:1;fill-rule:nonzero;stroke:none"
         d="m 1149.44,368.77 c -0.02,16.25 2.21,30 7.19,45.429 5.04,15.449 11.37,27.832 20.89,40.977 9.56,13.125 19.4,22.988 32.54,32.5 2.7,1.933 5.31,3.828 7.93,5.586 8.54,5.351 17.67,9.883 27.24,13.437 1.86,0.664 3.75,1.406 5.65,2.305 8.58,4.023 17.35,10.351 24.28,18.808 6.43,7.852 8.4,20.137 9.49,30.469 4.12,-4.941 8.09,-9.551 11.86,-13.769 l 0,1.25 0,-1.25 c 10.77,-12.071 20.29,-21.133 30.43,-26.875 4.73,-2.735 9.84,-4.922 15.58,-7.403 9.59,-4.179 20.9,-9.257 35.02,-19.16 1.78,-1.172 3.52,-2.402 5.2,-3.652 12.26,-8.926 23.07,-19.727 32.01,-31.973 0.14,-0.176 0.29,-0.371 0.45,-0.547 1.8,-2.422 3.46,-4.882 5,-7.422 1.95,-3.027 3.54,-6.308 5.25,-9.511 -0.13,0.429 -0.23,0.879 -0.37,1.308 -3.92,12.285 -9.35,23.907 -16.13,34.59 -1.56,2.617 -3.28,5.156 -5.12,7.656 -0.17,0.176 -0.33,0.391 -0.47,0.567 -9.18,12.637 -20.25,23.808 -32.85,33.047 -1.76,1.308 -3.51,2.558 -5.37,3.789 -14.49,10.254 -26.13,15.508 -36.01,19.824 -5.9,2.598 -11.16,4.863 -16,7.695 -10.43,5.957 -20.2,15.313 -31.25,27.774 -3.89,4.375 -7.95,9.14 -12.18,14.238 -1.16,-10.645 -3.25,-23.281 -9.88,-31.348 -7.17,-8.671 -16.24,-15.175 -25.08,-19.297 -1.97,-0.917 -3.91,-1.679 -5.83,-2.363 -9.86,-3.613 -19.3,-8.242 -28.1,-13.75 -2.7,-1.797 -5.42,-3.73 -8.18,-5.703 -13.58,-9.766 -23.76,-19.883 -33.64,-33.379 -9.84,-13.515 -16.43,-26.23 -21.67,-42.148 -5.19,-15.879 -7.51,-30.039 -7.55,-46.778 -0.12,-16.699 2.11,-30.879 7.21,-46.796 5.1,-15.942 11.58,-28.735 21.36,-42.309 5.75,-7.945 11.67,-14.664 18.25,-20.914 -9.03,12.656 -15.18,24.742 -19.98,39.683 -5,15.434 -7.24,29.184 -7.17,45.415" /><path
         id="path42"
         style="fill:#f7970f;fill-opacity:1;fill-rule:nonzero;stroke:none"
         d="m 1432.25,392.207 c -0.08,-16.191 -2.73,-31.719 -7.52,-46.309 -5,-15.257 -12.34,-29.398 -21.62,-42.074 -9.34,-12.769 -20.66,-24.058 -33.5,-33.375 -12.73,-9.219 -26.97,-16.484 -42.24,-21.445 -13.56,-4.375 -27.98,-6.895 -42.88,-7.246 -0.86,-0.02 -1.74,-0.039 -2.59,-0.039 -0.43,0 -0.84,0 -1.32,-0.02 -0.08,0 -0.2,0.02 -0.29,0.02 -0.18,0 -0.27,-0.02 -0.44,0 -1.55,0 -3.17,0.039 -4.73,0.117 -0.6,0.019 -1.19,0.019 -1.79,0.059 -0.96,0.039 -1.86,0.097 -2.77,0.156 -5.22,0.351 -10.4,0.976 -15.45,1.836 -1.22,0.254 -2.53,0.449 -3.78,0.683 -0.04,0.039 -0.13,0.039 -0.19,0.039 -5.69,1.211 -11.37,2.715 -17.33,4.707 -15.86,5.215 -28.63,11.758 -42.14,21.661 -5.57,4.082 -10.45,8.281 -15.08,12.695 -9.03,12.656 -15.18,24.742 -19.98,39.683 -5,15.434 -7.24,29.184 -7.17,45.415 -0.02,16.25 2.21,30 7.19,45.429 5.04,15.449 11.37,27.832 20.89,40.977 9.56,13.125 19.4,22.988 32.54,32.5 2.7,1.933 5.31,3.828 7.93,5.586 8.54,5.351 17.67,9.883 27.24,13.437 1.86,0.664 3.75,1.406 5.65,2.305 8.58,4.023 17.35,10.351 24.28,18.808 6.43,7.852 8.4,20.137 9.49,30.469 4.12,-4.941 8.09,-9.551 11.86,-13.769 10.77,-12.071 20.29,-21.133 30.43,-26.875 4.73,-2.735 9.84,-4.922 15.58,-7.403 9.59,-4.179 20.9,-9.257 35.02,-19.16 1.78,-1.172 3.52,-2.402 5.2,-3.652 12.26,-8.926 23.07,-19.727 32.01,-31.973 0.14,-0.176 0.29,-0.371 0.45,-0.547 1.8,-2.422 3.46,-4.882 5,-7.422 1.95,-3.027 3.54,-6.308 5.25,-9.511 4.44,-14.336 6.86,-29.59 6.8,-45.41 0,-0.137 0,-0.254 0,-0.352 z m 107.41,-147.109 c -1.42,1.621 -3.02,3.359 -4.53,5.019 17.85,36.309 28.19,77.106 28.19,120.332 0,0.137 0,0.274 0,0.43 l 96.99,0 c 0,41.543 -4.77,79.258 -16.31,81.601 -11.56,2.344 -32.83,3.633 -88.67,6.387 -2.27,0.078 -4.69,0.235 -7.03,0.352 -13.7,39.961 -36.22,75.82 -65.53,104.98 l 4.76,4.805 64.16,64.082 c -29.39,29.414 -59.43,52.68 -69.23,46.211 -9.85,-6.563 -25.8,-20.664 -67.26,-58.184 -1.82,-1.679 -3.71,-3.418 -5.53,-5.117 -36.25,17.734 -76.79,27.969 -119.86,27.969 -8.83,0 -17.62,-0.508 -26.25,-1.328 8.55,0.82 17.14,1.386 25.88,1.386 l 0,97.719 c -41.53,0 -79.26,-4.765 -81.59,-16.336 -2.4,-11.535 -3.65,-32.804 -6.41,-88.648 -0.15,-2.481 -0.26,-5.215 -0.38,-7.793 0.3,0.117 0.54,0.195 0.84,0.273 -55.99,-19.023 -103.89,-55.586 -136.95,-103.32 9.15,13.398 19.53,26.172 31.4,38.105 l -5.04,4.981 -64.12,64.121 c -29.362,-29.395 -52.659,-59.434 -46.151,-69.258 6.496,-9.844 20.641,-25.762 58.181,-67.226 1.66,-1.856 3.48,-3.868 5.22,-5.762 0.3,0.605 0.68,1.25 0.98,1.855 -18.42,-36.777 -29.05,-78.164 -29.09,-122.089 0,0.078 -0.04,0.156 -0.04,0.234 l -97.716,0 c -0.043,-41.586 4.801,-79.258 16.309,-81.602 11.539,-2.343 32.832,-3.672 88.677,-6.445 2.42,-0.098 5,-0.215 7.48,-0.332 13.54,-39.902 35.88,-75.781 65.02,-105.02 l -4.79,-4.765 -64.08,-64.082 c 29.36,-29.3947 59.44,-52.676 69.24,-46.1721 9.83,6.4844 25.8,20.625 67.26,58.1441 1.66,1.563 3.48,3.184 5.26,4.786 36.35,-17.969 77.21,-28.3793 120.49,-28.4183 L 1289.44,0 c 41.54,0 79.26,4.76562 81.6,16.3477 2.38,11.5039 3.67,32.7929 6.41,88.6523 0.15,2.148 0.21,4.453 0.35,6.68 40.1,13.632 76.14,36.093 105.42,65.41 l 4.35,-4.336 64.12,-64.121 c 29.4,29.394 52.66,59.414 46.16,69.219 -6.51,9.843 -20.65,25.8 -58.19,67.246" /><path
         id="path44"
         style="fill:#aa631d;fill-opacity:1;fill-rule:nonzero;stroke:none"
         d="m 1435.98,413.965 c -2.71,8.418 -6.4,16.347 -10.53,24.004 4.44,-14.336 6.86,-29.59 6.8,-45.41 0,-0.137 0,-0.254 0,-0.352 -0.08,-16.191 -2.73,-31.719 -7.52,-46.309 -5,-15.257 -12.34,-29.398 -21.62,-42.074 -9.34,-12.769 -20.66,-24.058 -33.5,-33.375 -12.73,-9.219 -26.97,-16.484 -42.24,-21.445 -13.56,-4.375 -27.98,-6.895 -42.88,-7.246 -0.86,-0.02 -1.74,-0.039 -2.59,-0.039 -0.43,0 -0.84,0 -1.32,-0.02 -0.08,0 -0.2,0.02 -0.29,0.02 -0.18,0 -0.27,-0.02 -0.44,0 -1.55,0 -3.17,0.039 -4.73,0.117 -0.6,0.019 -1.19,0.019 -1.79,0.059 -0.96,0.039 -1.86,0.097 -2.77,0.156 -5.22,0.351 -10.4,0.976 -15.45,1.836 -1.22,0.254 -2.53,0.449 -3.78,0.683 -0.04,0.039 -0.13,0.039 -0.19,0.039 -5.69,1.211 -11.37,2.715 -17.33,4.707 -15.86,5.215 -28.63,11.758 -42.14,21.661 -5.57,4.082 -10.45,8.281 -15.08,12.695 0.3,-0.449 0.54,-0.879 0.88,-1.309 9.55,-13.125 19.37,-22.988 32.46,-32.519 13.14,-9.59 25.56,-15.899 40.97,-20.899 5.78,-1.914 11.32,-3.359 16.84,-4.511 0.06,0 0.16,0 0.19,-0.039 1.22,-0.235 2.48,-0.43 3.67,-0.645 4.91,-0.84 9.93,-1.426 14.99,-1.738 0.91,-0.059 1.76,-0.098 2.69,-0.137 0.59,-0.059 1.16,-0.059 1.76,-0.078 1.5,-0.059 3.07,-0.078 4.59,-0.078 0.16,0 0.24,0 0.43,0.019 0.08,0 0.19,-0.019 0.27,-0.019 0.47,0 0.85,0.019 1.29,0.019 0.82,0 1.66,0.02 2.5,0.039 14.46,0.371 28.46,2.871 41.6,7.168 14.83,4.864 28.62,11.973 40.94,20.938 12.4,9.101 23.4,20.078 32.4,32.519 8.99,12.344 16.06,26.09 20.88,40.914 4.58,14.161 7.1,29.262 7.14,44.965 0,0.098 0,0.215 0,0.332 0,15.84 -2.52,31.075 -7.1,45.352" /></g></g></svg>